<?xml version="1.0" encoding="UTF-8"?>
<svg width="120" height="32" viewBox="0 0 120 32" fill="none" xmlns="http://www.w3.org/2000/svg">
  <path d="M16 8C11.5817 8 8 11.5817 8 16C8 20.4183 11.5817 24 16 24C20.4183 24 24 20.4183 24 16C24 11.5817 20.4183 8 16 8ZM16 22C12.6863 22 10 19.3137 10 16C10 12.6863 12.6863 10 16 10C19.3137 10 22 12.6863 22 16C22 19.3137 19.3137 22 16 22Z" fill="#4F46E5"/>
  <path d="M16 12C14.3431 12 13 13.3431 13 15V17C13 18.6569 14.3431 20 16 20C17.6569 20 19 18.6569 19 17V15C19 13.3431 17.6569 12 16 12Z" fill="#4F46E5"/>
  <path d="M32 16H40M40 16L36 12M40 16L36 20" stroke="#4F46E5" stroke-width="2" stroke-linecap="round" stroke-linejoin="round"/>
  <path d="M48 16H56M56 16L52 12M56 16L52 20" stroke="#4F46E5" stroke-width="2" stroke-linecap="round" stroke-linejoin="round"/>
  <path d="M64 16H72M72 16L68 12M72 16L68 20" stroke="#4F46E5" stroke-width="2" stroke-linecap="round" stroke-linejoin="round"/>
  <path d="M80 16H88M88 16L84 12M88 16L84 20" stroke="#4F46E5" stroke-width="2" stroke-linecap="round" stroke-linejoin="round"/>
  <path d="M96 16H104M104 16L100 12M104 16L100 20" stroke="#4F46E5" stroke-width="2" stroke-linecap="round" stroke-linejoin="round"/>
</svg>